<mxfile host="app.diagrams.net" modified="2024-06-19T06:06:17.564Z" agent="Mozilla/5.0 (Windows NT 10.0; Win64; x64) AppleWebKit/537.36 (KHTML, like Gecko) Chrome/124.0.0.0 YaBrowser/24.6.0.0 Safari/537.36" etag="2nVW3TdPVkclT0IcJcx3" version="24.4.6" type="google">
  <diagram name="Страница — 1" id="b3Ez9q9t66kzktg0Jbn-">
    <mxGraphModel grid="1" page="1" gridSize="10" guides="1" tooltips="1" connect="1" arrows="1" fold="1" pageScale="1" pageWidth="827" pageHeight="1169" math="0" shadow="0">
      <root>
        <mxCell id="0" />
        <mxCell id="1" parent="0" />
        <mxCell id="z3J0bgOVsIaFJM9-CtPP-1" value="Rinex API" style="rounded=0;whiteSpace=wrap;html=1;" vertex="1" parent="1">
          <mxGeometry x="410" y="320" width="120" height="60" as="geometry" />
        </mxCell>
        <mxCell id="z3J0bgOVsIaFJM9-CtPP-2" value="" style="shape=flexArrow;endArrow=classic;html=1;rounded=0;" edge="1" parent="1" target="z3J0bgOVsIaFJM9-CtPP-3">
          <mxGeometry width="50" height="50" relative="1" as="geometry">
            <mxPoint x="470" y="390" as="sourcePoint" />
            <mxPoint x="470" y="470" as="targetPoint" />
          </mxGeometry>
        </mxCell>
        <mxCell id="z3J0bgOVsIaFJM9-CtPP-3" value="Архив типа&amp;nbsp; &#39;2024-01-01.zip&#39; в папке data" style="rounded=0;whiteSpace=wrap;html=1;" vertex="1" parent="1">
          <mxGeometry x="410" y="440" width="120" height="60" as="geometry" />
        </mxCell>
        <mxCell id="z3J0bgOVsIaFJM9-CtPP-4" value="" style="ellipse;whiteSpace=wrap;html=1;fillColor=none;" vertex="1" parent="1">
          <mxGeometry x="307.5" y="250" width="325" height="270" as="geometry" />
        </mxCell>
        <mxCell id="z3J0bgOVsIaFJM9-CtPP-5" value="&lt;span style=&quot;font-size: 25px;&quot;&gt;Функция скачивания&lt;/span&gt;" style="text;html=1;align=center;verticalAlign=middle;whiteSpace=wrap;rounded=0;" vertex="1" parent="1">
          <mxGeometry x="414" y="270" width="126" height="40" as="geometry" />
        </mxCell>
        <mxCell id="z3J0bgOVsIaFJM9-CtPP-7" value="&lt;font style=&quot;font-size: 16px;&quot;&gt;Запрос&lt;/font&gt;" style="text;html=1;align=center;verticalAlign=middle;whiteSpace=wrap;rounded=0;" vertex="1" parent="1">
          <mxGeometry x="480" y="390" width="60" height="30" as="geometry" />
        </mxCell>
        <mxCell id="z3J0bgOVsIaFJM9-CtPP-9" value="" style="shape=flexArrow;endArrow=classic;html=1;rounded=0;" edge="1" parent="1">
          <mxGeometry width="50" height="50" relative="1" as="geometry">
            <mxPoint x="469.41" y="530" as="sourcePoint" />
            <mxPoint x="469.4100000000001" y="587.9999999999998" as="targetPoint" />
          </mxGeometry>
        </mxCell>
        <mxCell id="z3J0bgOVsIaFJM9-CtPP-11" value="Распаковка" style="text;html=1;align=center;verticalAlign=middle;whiteSpace=wrap;rounded=0;" vertex="1" parent="1">
          <mxGeometry x="480.0000000000001" y="529.9999999999998" width="60" height="30" as="geometry" />
        </mxCell>
        <mxCell id="z3J0bgOVsIaFJM9-CtPP-12" value="Папка типа &#39;2024-01-01&#39; в папке data" style="rounded=0;whiteSpace=wrap;html=1;" vertex="1" parent="1">
          <mxGeometry x="400" y="590" width="140" height="60" as="geometry" />
        </mxCell>
        <mxCell id="z3J0bgOVsIaFJM9-CtPP-13" value="" style="ellipse;whiteSpace=wrap;html=1;fillColor=none;" vertex="1" parent="1">
          <mxGeometry x="370" y="860" width="200" height="160" as="geometry" />
        </mxCell>
        <mxCell id="z3J0bgOVsIaFJM9-CtPP-14" value="" style="shape=flexArrow;endArrow=classic;html=1;rounded=0;" edge="1" parent="1" target="z3J0bgOVsIaFJM9-CtPP-15">
          <mxGeometry width="50" height="50" relative="1" as="geometry">
            <mxPoint x="469.38" y="660" as="sourcePoint" />
            <mxPoint x="469.38" y="710" as="targetPoint" />
          </mxGeometry>
        </mxCell>
        <mxCell id="z3J0bgOVsIaFJM9-CtPP-15" value="Архивы типа .gz, .Z" style="rounded=0;whiteSpace=wrap;html=1;" vertex="1" parent="1">
          <mxGeometry x="410" y="710" width="120" height="60" as="geometry" />
        </mxCell>
        <mxCell id="z3J0bgOVsIaFJM9-CtPP-16" value="Содержит" style="text;html=1;align=center;verticalAlign=middle;whiteSpace=wrap;rounded=0;" vertex="1" parent="1">
          <mxGeometry x="500" y="670" width="60" height="30" as="geometry" />
        </mxCell>
        <mxCell id="z3J0bgOVsIaFJM9-CtPP-17" value="" style="shape=flexArrow;endArrow=classic;html=1;rounded=0;" edge="1" parent="1">
          <mxGeometry width="50" height="50" relative="1" as="geometry">
            <mxPoint x="469.38" y="780" as="sourcePoint" />
            <mxPoint x="469" y="850" as="targetPoint" />
          </mxGeometry>
        </mxCell>
        <mxCell id="z3J0bgOVsIaFJM9-CtPP-18" value="Передаются запросом" style="text;html=1;align=center;verticalAlign=middle;whiteSpace=wrap;rounded=0;" vertex="1" parent="1">
          <mxGeometry x="490" y="800" width="60" height="30" as="geometry" />
        </mxCell>
        <mxCell id="z3J0bgOVsIaFJM9-CtPP-19" value="Функция распаковки" style="text;html=1;align=center;verticalAlign=middle;whiteSpace=wrap;rounded=0;" vertex="1" parent="1">
          <mxGeometry x="440" y="870" width="60" height="30" as="geometry" />
        </mxCell>
        <mxCell id="z3J0bgOVsIaFJM9-CtPP-20" value="Распаковка архивов типа .gz, .Z" style="rounded=0;whiteSpace=wrap;html=1;" vertex="1" parent="1">
          <mxGeometry x="410" y="920" width="120" height="60" as="geometry" />
        </mxCell>
        <mxCell id="z3J0bgOVsIaFJM9-CtPP-21" value="" style="shape=flexArrow;endArrow=classic;html=1;rounded=0;" edge="1" parent="1" target="z3J0bgOVsIaFJM9-CtPP-22">
          <mxGeometry width="50" height="50" relative="1" as="geometry">
            <mxPoint x="469.41" y="1030" as="sourcePoint" />
            <mxPoint x="469.41" y="1090" as="targetPoint" />
          </mxGeometry>
        </mxCell>
        <mxCell id="z3J0bgOVsIaFJM9-CtPP-22" value="Файлы типа .crx, .24d" style="rounded=0;whiteSpace=wrap;html=1;" vertex="1" parent="1">
          <mxGeometry x="410.00000000000006" y="1090" width="120" height="60" as="geometry" />
        </mxCell>
        <mxCell id="z3J0bgOVsIaFJM9-CtPP-23" value="" style="ellipse;whiteSpace=wrap;html=1;fillColor=none;" vertex="1" parent="1">
          <mxGeometry x="240" y="1180" width="120" height="80" as="geometry" />
        </mxCell>
        <mxCell id="z3J0bgOVsIaFJM9-CtPP-24" value="Конвертатор CRX2RNX&lt;div&gt;в папке lib&lt;/div&gt;" style="text;html=1;align=center;verticalAlign=middle;whiteSpace=wrap;rounded=0;" vertex="1" parent="1">
          <mxGeometry x="270" y="1205" width="60" height="30" as="geometry" />
        </mxCell>
        <mxCell id="z3J0bgOVsIaFJM9-CtPP-26" value="" style="shape=flexArrow;endArrow=classic;html=1;rounded=0;" edge="1" parent="1">
          <mxGeometry width="50" height="50" relative="1" as="geometry">
            <mxPoint x="360" y="1219.5" as="sourcePoint" />
            <mxPoint x="400" y="1219.5" as="targetPoint" />
          </mxGeometry>
        </mxCell>
        <mxCell id="z3J0bgOVsIaFJM9-CtPP-27" value="" style="shape=flexArrow;endArrow=classic;html=1;rounded=0;" edge="1" parent="1" target="z3J0bgOVsIaFJM9-CtPP-28">
          <mxGeometry width="50" height="50" relative="1" as="geometry">
            <mxPoint x="472.5" y="1150" as="sourcePoint" />
            <mxPoint x="473" y="1200" as="targetPoint" />
          </mxGeometry>
        </mxCell>
        <mxCell id="z3J0bgOVsIaFJM9-CtPP-28" value="" style="ellipse;whiteSpace=wrap;html=1;fillColor=none;" vertex="1" parent="1">
          <mxGeometry x="414" y="1190" width="120" height="80" as="geometry" />
        </mxCell>
        <mxCell id="z3J0bgOVsIaFJM9-CtPP-29" value="Функция конвертации в .rnx, .24o" style="text;html=1;align=center;verticalAlign=middle;whiteSpace=wrap;rounded=0;" vertex="1" parent="1">
          <mxGeometry x="444" y="1200" width="60" height="30" as="geometry" />
        </mxCell>
        <mxCell id="z3J0bgOVsIaFJM9-CtPP-30" value="" style="shape=flexArrow;endArrow=classic;html=1;rounded=0;" edge="1" parent="1" target="z3J0bgOVsIaFJM9-CtPP-31">
          <mxGeometry width="50" height="50" relative="1" as="geometry">
            <mxPoint x="476.38" y="1270" as="sourcePoint" />
            <mxPoint x="476.38" y="1340" as="targetPoint" />
          </mxGeometry>
        </mxCell>
        <mxCell id="z3J0bgOVsIaFJM9-CtPP-31" value="Файлы .rnx, .24o" style="rounded=0;whiteSpace=wrap;html=1;" vertex="1" parent="1">
          <mxGeometry x="416.3800000000001" y="1309.9999999999998" width="120" height="60" as="geometry" />
        </mxCell>
        <mxCell id="z3J0bgOVsIaFJM9-CtPP-32" value="" style="shape=flexArrow;endArrow=classic;html=1;rounded=0;" edge="1" parent="1">
          <mxGeometry width="50" height="50" relative="1" as="geometry">
            <mxPoint x="469.44" y="1380" as="sourcePoint" />
            <mxPoint x="470" y="1440" as="targetPoint" />
          </mxGeometry>
        </mxCell>
        <mxCell id="z3J0bgOVsIaFJM9-CtPP-34" value="Запрос" style="text;html=1;align=center;verticalAlign=middle;whiteSpace=wrap;rounded=0;" vertex="1" parent="1">
          <mxGeometry x="490.00000000000006" y="1390" width="60" height="30" as="geometry" />
        </mxCell>
        <mxCell id="z3J0bgOVsIaFJM9-CtPP-35" value="" style="ellipse;whiteSpace=wrap;html=1;fillColor=none;" vertex="1" parent="1">
          <mxGeometry x="410" y="1440" width="120" height="80" as="geometry" />
        </mxCell>
        <mxCell id="z3J0bgOVsIaFJM9-CtPP-36" value="Функция парсинга .rnx, .24o файла" style="text;html=1;align=center;verticalAlign=middle;whiteSpace=wrap;rounded=0;" vertex="1" parent="1">
          <mxGeometry x="440" y="1465" width="60" height="30" as="geometry" />
        </mxCell>
        <mxCell id="z3J0bgOVsIaFJM9-CtPP-37" value="" style="shape=flexArrow;endArrow=classic;html=1;rounded=0;" edge="1" parent="1">
          <mxGeometry width="50" height="50" relative="1" as="geometry">
            <mxPoint x="469.44" y="1530" as="sourcePoint" />
            <mxPoint x="469.87076923076916" y="1580" as="targetPoint" />
          </mxGeometry>
        </mxCell>
        <mxCell id="z3J0bgOVsIaFJM9-CtPP-39" value="Парсинг" style="text;html=1;align=center;verticalAlign=middle;whiteSpace=wrap;rounded=0;" vertex="1" parent="1">
          <mxGeometry x="480.00000000000006" y="1530" width="60" height="30" as="geometry" />
        </mxCell>
        <mxCell id="z3J0bgOVsIaFJM9-CtPP-40" value="Данные из каждого файла" style="rounded=0;whiteSpace=wrap;html=1;" vertex="1" parent="1">
          <mxGeometry x="410" y="1580" width="120" height="60" as="geometry" />
        </mxCell>
        <mxCell id="z3J0bgOVsIaFJM9-CtPP-41" value="" style="shape=flexArrow;endArrow=classic;html=1;rounded=0;" edge="1" parent="1">
          <mxGeometry width="50" height="50" relative="1" as="geometry">
            <mxPoint x="460" y="1650" as="sourcePoint" />
            <mxPoint x="460" y="1724.0000000000005" as="targetPoint" />
          </mxGeometry>
        </mxCell>
        <mxCell id="z3J0bgOVsIaFJM9-CtPP-43" value="Публикуется" style="text;html=1;align=center;verticalAlign=middle;whiteSpace=wrap;rounded=0;" vertex="1" parent="1">
          <mxGeometry x="511.38" y="1670" width="60" height="30" as="geometry" />
        </mxCell>
        <mxCell id="z3J0bgOVsIaFJM9-CtPP-44" value="Publisher" style="rounded=0;whiteSpace=wrap;html=1;" vertex="1" parent="1">
          <mxGeometry x="410" y="1730" width="120" height="60" as="geometry" />
        </mxCell>
        <mxCell id="z3J0bgOVsIaFJM9-CtPP-45" value="" style="shape=flexArrow;endArrow=classic;html=1;rounded=0;" edge="1" parent="1">
          <mxGeometry width="50" height="50" relative="1" as="geometry">
            <mxPoint x="460" y="1800" as="sourcePoint" />
            <mxPoint x="460" y="1850" as="targetPoint" />
          </mxGeometry>
        </mxCell>
        <mxCell id="z3J0bgOVsIaFJM9-CtPP-47" value="Перенаправляется" style="text;html=1;align=center;verticalAlign=middle;whiteSpace=wrap;rounded=0;" vertex="1" parent="1">
          <mxGeometry x="528" y="1800" width="60" height="30" as="geometry" />
        </mxCell>
        <mxCell id="z3J0bgOVsIaFJM9-CtPP-48" value="broker" style="rounded=0;whiteSpace=wrap;html=1;" vertex="1" parent="1">
          <mxGeometry x="410" y="1860" width="120" height="60" as="geometry" />
        </mxCell>
        <mxCell id="z3J0bgOVsIaFJM9-CtPP-49" value="" style="shape=flexArrow;endArrow=classic;html=1;rounded=0;" edge="1" parent="1">
          <mxGeometry width="50" height="50" relative="1" as="geometry">
            <mxPoint x="427" y="1650" as="sourcePoint" />
            <mxPoint x="427" y="1724.0000000000005" as="targetPoint" />
          </mxGeometry>
        </mxCell>
        <mxCell id="z3J0bgOVsIaFJM9-CtPP-50" value="" style="shape=flexArrow;endArrow=classic;html=1;rounded=0;" edge="1" parent="1">
          <mxGeometry width="50" height="50" relative="1" as="geometry">
            <mxPoint x="495" y="1650" as="sourcePoint" />
            <mxPoint x="495" y="1724.0000000000005" as="targetPoint" />
          </mxGeometry>
        </mxCell>
        <mxCell id="z3J0bgOVsIaFJM9-CtPP-51" value="" style="shape=flexArrow;endArrow=classic;html=1;rounded=0;" edge="1" parent="1">
          <mxGeometry width="50" height="50" relative="1" as="geometry">
            <mxPoint x="426" y="1800" as="sourcePoint" />
            <mxPoint x="426" y="1850" as="targetPoint" />
          </mxGeometry>
        </mxCell>
        <mxCell id="z3J0bgOVsIaFJM9-CtPP-52" value="" style="shape=flexArrow;endArrow=classic;html=1;rounded=0;" edge="1" parent="1">
          <mxGeometry width="50" height="50" relative="1" as="geometry">
            <mxPoint x="495" y="1800" as="sourcePoint" />
            <mxPoint x="495" y="1850" as="targetPoint" />
          </mxGeometry>
        </mxCell>
        <mxCell id="z3J0bgOVsIaFJM9-CtPP-53" value="" style="shape=flexArrow;endArrow=classic;html=1;rounded=0;" edge="1" parent="1">
          <mxGeometry width="50" height="50" relative="1" as="geometry">
            <mxPoint x="469" y="1930" as="sourcePoint" />
            <mxPoint x="469.7857142857142" y="1985" as="targetPoint" />
          </mxGeometry>
        </mxCell>
        <mxCell id="z3J0bgOVsIaFJM9-CtPP-55" value="Перенаправляет" style="text;html=1;align=center;verticalAlign=middle;whiteSpace=wrap;rounded=0;" vertex="1" parent="1">
          <mxGeometry x="501" y="1940" width="60" height="30" as="geometry" />
        </mxCell>
        <mxCell id="z3J0bgOVsIaFJM9-CtPP-56" value="subscriber" style="rounded=0;whiteSpace=wrap;html=1;" vertex="1" parent="1">
          <mxGeometry x="408" y="1990" width="120" height="60" as="geometry" />
        </mxCell>
        <mxCell id="z3J0bgOVsIaFJM9-CtPP-57" value="" style="ellipse;whiteSpace=wrap;html=1;rotation=90;fillColor=none;" vertex="1" parent="1">
          <mxGeometry x="-787.12" y="687.5" width="2492" height="525" as="geometry" />
        </mxCell>
        <mxCell id="z3J0bgOVsIaFJM9-CtPP-58" value="&lt;font style=&quot;font-size: 32px;&quot;&gt;Цикл&lt;/font&gt;" style="text;html=1;align=center;verticalAlign=middle;whiteSpace=wrap;rounded=0;" vertex="1" parent="1">
          <mxGeometry x="384" y="90" width="120" height="90" as="geometry" />
        </mxCell>
      </root>
    </mxGraphModel>
  </diagram>
</mxfile>
